<svg xmlns="http://www.w3.org/2000/svg" width="100" height="64" viewBox="0 0 100 64"><defs><style>.a{fill:rgba(0,0,0,0);}.b{fill:#f5f5f5;opacity:0.102;}.c{fill:rgba(255,255,255,0.2);}</style></defs><path class="a" d="M0,64Z"/><path class="b" d="M0,64H100V0H0Z"/><g transform="translate(34.931 15)"><path class="c" d="M4.163,0A4.172,4.172,0,0,0,0,4.181V19.138a4.163,4.163,0,1,0,8.326,0V4.181A4.172,4.172,0,0,0,4.163,0Z" transform="translate(0.065 5.112)"/><path class="c" d="M17.1.957a4.051,4.051,0,0,0-5.724.5L.95,13.906a4.07,4.07,0,0,0-.942,2.865A4.071,4.071,0,0,0,.95,19.635L11.377,32.087a4.051,4.051,0,0,0,5.724.5,4.092,4.092,0,0,0,.494-5.749L9.167,16.771,17.6,6.706A4.092,4.092,0,0,0,17.1.957Z" transform="translate(13.269 0)"/><path class="c" d="M7.236,1.208A3.993,3.993,0,0,0,4.325,0a4.243,4.243,0,0,0-3.09,1.208A3.955,3.955,0,0,0,0,4.147V7.217a3.983,3.983,0,0,0,1.219,2.939A3.994,3.994,0,0,0,4.13,11.365,4.243,4.243,0,0,0,7.22,10.156,3.955,3.955,0,0,0,8.455,7.217V4.147A3.983,3.983,0,0,0,7.236,1.208" transform="translate(0 5.112)"/></g></svg>